#!OML:ASF F:\VICON\USERDATA\INSTALL\rory3\rory3.ASF
:FULLY-SPECIFIED
:DEGREES
52
root -7.323701722631833 17.804283680823076 3.1260357924343785 4.004278064098045 60.83609723387547 -13.189695503949466
lfemur -26.823842409637827 25.23468248929581 -1.4758588651204425
ltibia 37.59915137748361
lfoot -1.1041640810992845 1.937923164856226
ltoes -15.180191177033254
rfemur -35.981849418397076 4.692558214113586 20.810284654872362
rtibia 30.107057151504645
rfoot -4.821160386607982 9.999514246968369
rtoes 0.6975932670434339
lowerback 8.345033973688903 -8.626929856440222 -12.34396596448553
upperback 1.7690534798543514 -12.358215957813643 0.028875227241562884
thorax 0.46250398117807023 -6.409272536092158 6.786627868827319
lowerneck -9.446379267046854 16.828512214212154 2.4522290429181406
upperneck 13.829640984699969 25.247073913304337 -12.467952358019396
head 8.524240615348875 11.148185474057593 -1.309060773857121
lclavicle -7.150481674290826e-15 -5.126917543716232e-15
lhumerus 97.85967547881657 -43.89319775785029 51.451593556167765
lradius 26.693337543450454
lwrist 5.5990000635034285
lhand -7.158510204553893 6.107863610067362
lfingers 7.125020000000003
lthumb -161.29696069293564 327.10096066836996
rclavicle -7.150481674290826e-15 -5.126917543716231e-15
rhumerus 35.362042559614146 -21.083336590029077 -67.62712356561318
rradius 90.19510765167982
rwrist -18.496615388944385
rhand -62.13841744042745 22.860044781398777
rfingers 7.125020000000003
rthumb -34.18009628221962 -4.5705131032169115
53
root -7.355801869576112 17.813491129012927 2.8769924006354546 -4.311642787784905 66.71493899003326 -22.307612543630313
lfemur -30.66905980525315 23.762731098238213 -3.5295584769300277
ltibia 37.565953373649364
lfoot -1.1907201245800216 0.30059700300030556
ltoes -13.700004215657387
rfemur -36.01166255693789 3.1875692637490807 19.40226521978898
rtibia 30.240494485209275
rfoot -4.78063172173187 4.966634729274368
rtoes -4.264783801499814
lowerback 8.085986819473035 -8.63031735997562 -10.848785608034957
upperback 2.458694676627367 -12.214151903141481 0.9830024092531807
thorax 1.2324688543111302 -6.3943174828235145 7.0898166584350575
lowerneck -10.43270469010479 15.620111003885006 3.177762100491172
upperneck 15.124310212400674 23.721038898602167 -12.723549129908719
head 9.082783868371761 10.351616693348994 -1.6197519639520621
lclavicle -6.406298551302697e-15 -4.625327523501776e-15
lhumerus 94.85242469637036 -45.97798766827039 53.81996548613175
lradius 25.464865753372813
lwrist 5.666811462762176
lhand -6.602250418872685 7.9690752395564655
lfingers 7.125020000000003
lthumb -160.75929724056655 332.7511520880857
rclavicle -6.406298551302697e-15 -4.625327523501776e-15
rhumerus 33.418552387192015 -20.059253221360237 -69.46398956021275
rradius 88.7928556827239
rwrist -20.708170039169026
rhand -62.22699804223439 21.965371269886898
rfingers 7.125020000000003
rthumb -34.26346267930624 -5.41884319950387
54
root -7.389739904750332 17.824799576791282 2.5778656267186806 -22.104904887429868 71.63835904161354 -40.84845772040022
lfemur -34.47484796962772 21.047993625972374 -5.735626206634886
ltibia 37.134232823037905
lfoot -1.4380171981227683 -2.5075020940911052
ltoes -13.645422320716918
rfemur -35.906897172002616 1.5099543069604224 17.553690562415806
rtibia 30.29753621195374
rfoot -5.023964832131705 -1.0904324907572933
rtoes -9.520574409388175
lowerback 7.393588937111587 -8.858120117275691 -9.257681201059441
upperback 3.042105970668249 -12.401898510323585 2.052888453286978
thorax 2.099014541110774 -6.539740002153744 7.26339936783783
lowerneck -11.941725448480824 13.735656531032646 3.623067310290606
upperneck 16.59168173615258 21.334080009901097 -13.052720099341421
head 9.645091691828712 9.150454649912412 -1.9901330204433119
lclavicle -7.06668609661623e-15 -5.091120910299263e-15
lhumerus 89.9767168658414 -48.63875570692443 56.78074343067757
lradius 24.02156941056434
lwrist 5.018861979681155
lhand -6.334578243692224 9.80727638395982
lfingers 7.125020000000003
lthumb -160.49970525395378 342.41448767058205
rclavicle -7.066686096616229e-15 -5.091120910299263e-15
rhumerus 30.097376463981515 -19.312090385161405 -71.3216436096084
rradius 86.76605490735068
rwrist -23.49881540448426
rhand -62.85527415430238 21.368346501518694
rfingers 7.125020000000003
rthumb -34.86214490763177 -5.944386340861692
55
root -7.412381762239586 17.838415203711044 2.2939572566806 -45.71364862991183 75.48179400202241 -65.0405997126073
lfemur -37.40780126217941 17.741155778704442 -7.9942286048345785
ltibia 36.290644443955145
lfoot -1.0128913339816101 -5.681281832054065
ltoes -13.66098301211769
rfemur -34.81060524018862 0.011225685209400704 15.508792742368435
rtibia 30.67561603716979
rfoot -5.01734135273931 -7.296381687981978
rtoes -13.057601082654035
lowerback 6.3494157581137864 -8.961034016684971 -7.263685143359779
upperback 3.620086171577877 -12.413290090356854 3.208989404080658
thorax 3.1077050613011616 -6.570791483898562 7.368949460331449
lowerneck -13.186434063493536 11.630808198658288 4.129754186588892
upperneck 18.306329833688764 18.678224347016037 -13.380164921219258
head 10.178529576968053 7.832516323779153 -2.454084938772224
lclavicle -6.943942015590203e-15 -5.053788466189265e-15
lhumerus 84.10081487679282 -50.92338161997347 60.54876460849687
lradius 22.669499009666602
lwrist 4.672606407125741
lhand -6.156632615084886 12.176909791783732
lfingers 7.125020000000003
lthumb -160.3256790586066 354.09528809055627
rclavicle -6.943942015590202e-15 -5.053788466189265e-15
rhumerus 26.342172202462315 -17.778615934406517 -72.92443044424559
rradius 84.16994681144999
rwrist -26.664362721319275
rhand -63.25306168057077 20.745628184772617
rfingers 7.125020000000003
rthumb -35.239636674882696 -6.490723938435976
